<?xml version="1.0" standalone="no"?>
<!DOCTYPE svg PUBLIC "-//W3C//DTD SVG 20010904//EN"
 "http://www.w3.org/TR/2001/REC-SVG-20010904/DTD/svg10.dtd">
<svg version="1.0" xmlns="http://www.w3.org/2000/svg"
 width="524.000000pt" height="455.000000pt" viewBox="0 0 524.000000 455.000000"
 preserveAspectRatio="xMidYMid meet">
<g transform="translate(0.000000,455.000000) scale(0.100000,-0.100000)"
fill="#000000" stroke="none">
<path d="M3632 4355 c-79 -22 -138 -61 -227 -149 -174 -173 -281 -219 -912
-395 -182 -51 -456 -152 -588 -218 -297 -149 -708 -529 -955 -883 -178 -257
-267 -353 -500 -540 -226 -182 -270 -250 -270 -419 0 -195 87 -350 334 -596
240 -239 385 -332 948 -603 233 -113 332 -171 482 -286 47 -36 98 -69 113 -72
54 -14 112 48 98 104 -10 41 -174 195 -284 267 -92 60 -255 146 -331 175 -84
32 -365 172 -470 234 -195 115 -305 200 -460 356 -200 200 -268 319 -258 446
9 102 53 134 258 185 133 33 139 34 350 34 184 -1 230 -4 318 -23 287 -63 542
-171 781 -332 148 -99 185 -129 225 -182 78 -102 105 -187 67 -207 -10 -6 -84
-24 -164 -41 -137 -29 -151 -30 -245 -21 -251 26 -539 112 -872 261 -186 83
-243 96 -273 62 -31 -34 -21 -75 26 -119 57 -52 138 -99 402 -231 539 -269
699 -326 1115 -398 195 -34 477 -45 515 -20 53 35 20 126 -53 145 -20 5 -98
12 -172 16 -260 13 -465 45 -581 92 -21 8 -39 19 -39 24 0 5 50 9 110 9 172 0
332 41 399 103 59 54 79 173 42 252 -10 22 -41 71 -69 109 -28 38 -49 73 -46
77 5 9 95 29 132 29 16 0 54 19 91 45 39 27 76 45 92 45 25 0 33 -9 75 -91
111 -214 324 -461 564 -654 95 -76 319 -232 480 -334 47 -29 121 -77 165 -106
92 -60 157 -95 180 -95 28 0 65 46 65 81 0 41 -54 96 -198 198 -56 40 -105 77
-108 82 -3 5 19 0 48 -12 166 -67 462 -146 619 -164 74 -9 123 11 146 60 16
34 16 36 -3 63 -30 41 -93 68 -201 87 -295 53 -583 125 -583 147 0 4 57 8 128
8 144 0 404 31 427 50 22 18 18 55 -9 87 -28 33 -26 32 -387 18 -224 -8 -308
-1 -371 31 -30 16 -113 148 -228 367 -92 176 -111 228 -98 275 11 39 73 142
85 142 5 0 21 -37 37 -83 16 -45 47 -118 69 -162 89 -175 273 -302 533 -370
126 -33 498 -95 610 -102 84 -5 93 -4 113 16 12 12 21 34 21 50 0 63 -58 89
-229 102 -69 6 -202 25 -295 44 -240 47 -245 62 -35 101 164 29 217 48 225 78
8 32 -12 75 -41 88 -32 14 -221 -10 -418 -53 -135 -30 -140 -31 -182 -15 -89
34 -199 193 -234 337 -43 179 -17 312 96 501 117 194 222 314 497 568 175 162
331 329 403 433 54 77 135 234 162 314 51 151 10 269 -120 346 -76 45 -147 61
-389 88 -248 27 -315 42 -450 99 -135 57 -213 69 -298 45z m247 -255 c111 -48
320 -89 553 -107 55 -4 82 -11 93 -23 20 -22 7 -33 -55 -48 -25 -6 -141 -41
-258 -77 -135 -41 -231 -65 -261 -65 -35 0 -59 -8 -92 -28 -47 -30 -94 -80
-103 -110 -3 -10 -32 -30 -64 -46 -31 -15 -94 -50 -138 -77 -197 -118 -330
-176 -634 -275 -596 -193 -648 -213 -847 -330 -127 -74 -315 -200 -426 -284
-114 -88 -341 -294 -418 -381 l-61 -69 -163 0 c-90 0 -166 3 -168 8 -9 15 13
50 93 142 45 52 140 172 211 267 205 275 355 436 552 595 258 207 472 309 917
438 223 65 530 150 580 161 114 26 237 112 346 243 83 99 102 109 197 102 55
-4 97 -14 146 -36z m791 -321 c0 -90 -135 -254 -513 -625 -431 -422 -531 -562
-687 -962 -11 -30 -50 -100 -86 -158 -35 -57 -71 -119 -79 -138 -26 -62 -19
-127 31 -274 67 -197 161 -371 298 -546 75 -96 66 -97 -59 -2 -272 206 -456
400 -560 589 -54 98 -49 129 47 332 83 176 136 328 145 420 5 52 3 62 -15 78
-23 21 -68 25 -100 8 -34 -18 -82 -96 -133 -218 -53 -128 -79 -174 -144 -261
-61 -82 -112 -122 -215 -171 -115 -55 -197 -75 -305 -76 l-90 0 -93 63 c-164
112 -382 204 -610 257 -72 17 -112 31 -112 40 0 16 82 92 246 226 379 310 567
422 939 559 313 116 608 232 850 335 307 131 315 134 363 110 49 -23 149 -31
198 -15 96 31 138 89 139 194 l0 70 70 27 c117 47 449 167 463 168 7 1 12 -11
12 -30z"/>
<path d="M1852 773 c-7 -2 -17 -14 -23 -24 -18 -34 22 -84 94 -118 128 -60
871 -291 937 -291 31 0 70 44 70 79 0 62 -55 86 -500 215 -288 84 -524 146
-547 145 -10 0 -24 -3 -31 -6z"/>
</g>
</svg>
