<?xml version="1.0" standalone="no"?>
<!DOCTYPE svg PUBLIC "-//W3C//DTD SVG 20010904//EN"
 "http://www.w3.org/TR/2001/REC-SVG-20010904/DTD/svg10.dtd">
<svg version="1.0" xmlns="http://www.w3.org/2000/svg"
 width="600.000000pt" height="163.000000pt" viewBox="0 0 600.000000 163.000000"
 preserveAspectRatio="xMidYMid meet">
<g transform="translate(0.000000,163.000000) scale(0.100000,-0.100000)"
fill="#000000" stroke="none">
<path d="M1450 1507 c-40 -20 -73 -76 -66 -116 14 -91 91 -130 174 -88 74 36
65 170 -13 203 -42 17 -63 17 -95 1z"/>
<path d="M3450 1511 c-74 -24 -138 -80 -164 -143 -9 -20 -19 -68 -22 -107 l-7
-70 -56 -3 -56 -3 -3 -77 -3 -78 61 0 60 0 0 -305 0 -305 95 0 95 0 2 303 3
302 83 3 82 3 0 79 0 80 -86 0 -87 0 6 52 c11 91 54 124 150 114 l47 -5 0 74
c0 46 -4 77 -12 81 -17 11 -159 15 -188 5z"/>
<path d="M1900 1197 c-70 -20 -117 -54 -148 -105 -23 -39 -27 -58 -27 -117 1
-131 39 -171 223 -230 63 -20 123 -46 133 -56 27 -27 26 -90 -2 -115 -44 -40
-193 -9 -250 52 -12 13 -28 24 -35 24 -13 0 -94 -101 -94 -118 0 -18 88 -80
148 -103 43 -16 79 -22 142 -22 137 0 207 29 265 112 27 38 30 51 30 114 0
142 -49 194 -232 248 -118 34 -147 54 -151 101 -4 50 25 73 92 72 55 -1 132
-29 155 -57 7 -10 19 -17 25 -17 16 0 89 109 83 124 -9 22 -70 64 -118 81 -61
22 -184 28 -239 12z"/>
<path d="M2639 1197 c-213 -61 -330 -301 -258 -533 46 -148 146 -238 298 -266
72 -14 187 1 257 31 42 19 144 105 144 122 0 9 -82 88 -105 101 -7 5 -30 -9
-57 -36 -109 -104 -274 -81 -334 47 -45 98 -62 92 238 92 l263 0 3 50 c11 160
-71 312 -196 368 -73 33 -185 43 -253 24z m189 -163 c30 -22 57 -72 66 -121
l6 -33 -170 0 c-94 0 -170 4 -170 9 0 44 49 124 94 153 41 25 134 21 174 -8z"/>
<path d="M4009 1190 c-39 -11 -82 -46 -105 -83 l-19 -32 -5 55 -5 55 -82 3
-83 3 0 -386 0 -386 93 3 92 3 5 240 c4 197 8 245 21 270 34 61 80 86 169 94
l65 6 3 68 c2 42 -2 74 -9 83 -13 15 -95 18 -140 4z"/>
<path d="M4464 1191 c-55 -14 -121 -53 -169 -99 -131 -125 -154 -356 -51 -517
40 -62 85 -101 153 -132 164 -76 348 -41 466 87 182 196 119 527 -121 638 -47
21 -74 27 -152 29 -52 1 -109 -2 -126 -6z m197 -174 c29 -16 54 -40 74 -72 28
-45 30 -56 30 -139 0 -106 -20 -156 -81 -202 -48 -37 -136 -45 -195 -18 -102
45 -146 206 -93 334 44 104 166 149 265 97z"/>
<path d="M5300 1191 c-111 -34 -209 -140 -246 -266 -52 -182 48 -403 211 -464
122 -46 275 -18 339 60 l28 34 -6 -67 c-9 -112 -50 -169 -147 -203 -85 -30
-185 -12 -276 51 -29 20 -55 35 -57 33 -2 -2 -20 -33 -40 -69 l-38 -64 29 -24
c15 -13 59 -39 96 -57 222 -109 486 -40 573 150 37 81 44 160 44 533 l0 352
-90 0 -90 0 0 -46 0 -46 -32 28 c-60 50 -126 74 -203 73 -38 0 -81 -4 -95 -8z
m199 -161 c39 -11 86 -51 107 -92 37 -70 23 -208 -27 -272 -50 -64 -162 -85
-239 -46 -128 65 -146 265 -33 372 49 46 117 60 192 38z"/>
<path d="M150 1183 c0 -4 54 -177 119 -383 l118 -375 95 -3 94 -3 80 245 c43
135 82 242 86 238 3 -4 41 -114 84 -244 l77 -238 92 0 92 0 68 223 c37 122 90
292 116 377 27 85 49 159 49 163 0 4 -44 6 -97 5 l-98 -3 -69 -252 c-39 -139
-71 -251 -73 -249 -2 1 -30 97 -64 212 -33 115 -66 227 -73 249 l-13 40 -90 3
-89 3 -74 -248 c-40 -136 -77 -255 -81 -263 -5 -10 -10 -2 -18 25 -6 22 -39
139 -73 260 l-63 220 -98 3 c-53 1 -97 -1 -97 -5z"/>
<path d="M1400 805 l0 -385 95 0 95 0 0 385 0 385 -95 0 -95 0 0 -385z"/>
</g>
</svg>
